<?xml version="1.0" encoding="utf-8"?>
<!-- Generator: Adobe Illustrator 21.1.0, SVG Export Plug-In . SVG Version: 6.00 Build 0)  -->
<svg version="1.1" id="Ebene_1" xmlns="http://www.w3.org/2000/svg" xmlns:xlink="http://www.w3.org/1999/xlink" x="0px" y="0px"
	 viewBox="0 0 211.9 211.7" style="enable-background:new 0 0 211.9 211.7;" xml:space="preserve">
<style type="text/css">
	.st1{fill:#F5C850;}
	.st2{fill:#ED694B;}
	.st3{fill:#456F81;}
	.st4{fill:#88B767;}
</style>
<g>
	<g>
		<path class="st1" d="M102.5,54.1C95.1,54.1,89,48,89,40.6S95.1,27,102.5,27c7.5,0,13.5,6.1,13.5,13.5S110,54.1,102.5,54.1z
			 M102.5,31.4c-5,0-9.2,4.1-9.2,9.2s4.1,9.2,9.2,9.2s9.2-4.1,9.2-9.2S107.6,31.4,102.5,31.4z"/>
	</g>
	<g>
		<path class="st2" d="M150.7,80.1c-7.5,0-13.5-6.1-13.5-13.5s6.1-13.5,13.5-13.5c7.5,0,13.5,6.1,13.5,13.5S158.2,80.1,150.7,80.1z
			 M150.7,57.4c-5,0-9.2,4.1-9.2,9.2s4.1,9.2,9.2,9.2c5,0,9.2-4.1,9.2-9.2S155.8,57.4,150.7,57.4z"/>
	</g>
	<g>
		<path class="st3" d="M57.4,80.1c-7.5,0-13.5-6.1-13.5-13.5s6.1-13.5,13.5-13.5c7.5,0,13.5,6.1,13.5,13.5S64.8,80.1,57.4,80.1z
			 M57.4,57.4c-5,0-9.2,4.1-9.2,9.2s4.1,9.2,9.2,9.2c5,0,9.2-4.1,9.2-9.2S62.4,57.4,57.4,57.4z"/>
	</g>
	<g>
		<path class="st3" d="M67.2,81.7c-17.5,0-31.8,14.2-31.9,31.7h-0.2v24.4h4.4v-24.3h0.1c0-15.1,12.3-27.4,27.4-27.5
			c0.1-1.5,0.3-2.9,0.6-4.4C67.5,81.7,67.4,81.7,67.2,81.7z"/>
		<path class="st2" d="M161,118.1v-4.4c-17.4,0-31.6,14-31.9,31.4h0v0c0,0.1,0,0.1,0,0.2c0,0.1,0,0.2,0,0.3h0
			c0.3,7.2,6.2,13,13.5,13v0h15.1v-4.4h-15.1v0c0,0,0,0,0,0c-5,0-9.1-4-9.1-9C133.7,130.3,146,118.1,161,118.1z"/>
		<g>
			<g>
				<path class="st2" d="M150.8,145.6L150.8,145.6c-2.6,0-4.6-2.1-4.7-4.6c0.1-6.9,5.2-12.7,14.9-13.7v-4.4
					c-13,1.5-20.2,9.7-20.3,20c0.1,3.8,2.7,7.1,6.5,7.1h0l10.7,0v-4.4L150.8,145.6L150.8,145.6z"/>
			</g>
		</g>
		<path class="st2" d="M171.4,151.9v-38.3c0-17.6-14.3-31.9-31.9-31.9c-0.3,0-0.6,0-0.9,0c0.3,1.4,0.5,2.9,0.6,4.4
			c0.1,0,0.2,0,0.3,0c15.2,0,27.5,12.4,27.5,27.5v38.3v1.2c0.6,4.5,4.5,8,9.2,8v-4.4C173.6,156.7,171.4,154.6,171.4,151.9z"/>
	</g>
	<g>
		<path class="st1" d="M134.9,86.5c-0.1-1.5-0.3-2.9-0.6-4.3c0,0,0,0,0,0C131.2,67.8,118.4,57,103.2,57c-15.2,0-28,10.7-31.1,25
			c0,0-0.7,2.7-0.7,4.3c0,0.8,0,1.6,0,2.4c0,0.9,0,1.7,0,2.6v43.9v5.5v4.4v2.7v2.5v12.6c0,0,0,0,0,0c0,5.1,4.1,9.2,9.2,9.2
			c5.1,0,9.2-4.1,9.2-9.2V136v-6.8v-6.1v-5.3v0v-4.9V110c-1.6-1-3.1-2.2-4.4-3.5v3.4v5.4v0v18.8v5.6v15.5v7.8c0,2.7-2.2,4.8-4.8,4.8
			c-2.7,0-4.8-2.2-4.8-4.8h0v0v-7.8v-7.3v-3.6v-4.6v-34.6V105V91.2v-4.7c0-1.8,0.2-2.3,0.5-3.4c2.7-12.4,13.8-21.7,26.9-21.7
			c13.2,0,24.3,9.4,26.9,21.8c0.3,1.4,0.5,2.9,0.6,4.4c0,0.4,0,0.9,0,1.3c0,12-7.8,22.3-18.6,26c-1.4,0.5-2.8,0.8-4.3,1.1
			c-1.5,0.3-3.1,0.4-4.6,0.4c-1.4,0-2.8-0.1-4.2-0.3c-1.5-0.2-2.9-0.6-4.3-1c-0.2-0.1-0.3-0.1-0.5-0.2v4.6v0
			c1.4,0.4,2.7,0.7,4.2,0.9c1.6,0.2,3.2,0.4,4.9,0.4c1.8,0,3.5-0.2,5.2-0.4c1.5-0.2,2.9-0.6,4.2-1c12.9-4.1,22.4-16.2,22.4-30.4
			C135,88.1,135,87.3,134.9,86.5z"/>
		<path class="st1" d="M102.9,109.5c11.4,0.2,20.8-9,20.9-20.4s-9-20.8-20.4-20.9c-0.1,0-0.2,0-0.3,0c-11.3,0-20.5,9.1-20.7,20.4
			c-0.1,5.6,2.1,10.8,5.8,14.6c0,0,0.1-0.1,0.1-0.1c0.5,0.5,0.9,0.9,1.4,1.4v0.2C93.3,107.6,97.9,109.5,102.9,109.5z M87,88.9
			c0-8.9,7.2-16.2,16.2-16.2s16.2,7.2,16.2,16.2c0,8.9-7.2,16.2-16.2,16.2S87,97.8,87,88.9z"/>
	</g>
</g>
<g>
	<path class="st4" d="M30.7,184.7h-3.6v-21h7.1c1,0,2,0.2,2.9,0.5c0.9,0.3,1.6,0.8,2.2,1.4c0.6,0.6,1.1,1.3,1.4,2.1
		c0.3,0.8,0.5,1.7,0.5,2.7s-0.2,1.9-0.5,2.7c-0.3,0.8-0.8,1.5-1.4,2.1c-0.6,0.6-1.3,1.1-2.2,1.4c-0.9,0.3-1.8,0.5-2.9,0.5h-3.5
		V184.7z M30.7,173.7h3.1c1.2,0,2.2-0.3,2.8-0.9c0.6-0.6,0.9-1.4,0.9-2.4c0-1-0.3-1.8-0.9-2.4c-0.6-0.6-1.6-0.9-2.8-0.9h-3.1V173.7z
		"/>
	<path class="st4" d="M40.6,177.7h1.4v-2.4c0-0.4,0.1-0.7,0.2-1c0.1-0.3,0.3-0.5,0.5-0.7c0.2-0.2,0.4-0.3,0.7-0.4
		c0.2-0.1,0.5-0.1,0.8-0.1c0.2,0,0.4,0,0.7,0.1c0.2,0.1,0.5,0.2,0.8,0.3l-0.5,1c-0.1,0-0.2-0.1-0.3-0.1c-0.1,0-0.2-0.1-0.3-0.1
		c-0.1,0-0.2,0-0.3,0c-0.3,0-0.6,0.1-0.8,0.3s-0.3,0.5-0.3,0.8v2.3h1.8v1.1h-1.8v5.8h-1.3v-5.8h-1.4V177.7z"/>
	<path class="st4" d="M46.4,173.3h1.3v11.3h-1.3V173.3z"/>
	<path class="st4" d="M53.8,177.8c0.4,0.2,0.8,0.4,1.1,0.7c0.3,0.3,0.5,0.7,0.7,1.2s0.3,1,0.3,1.5c0,0.1,0,0.1,0,0.2
		c0,0.1,0,0.1,0,0.2h-5.6c0,0.3,0.1,0.5,0.2,0.8c0.1,0.2,0.3,0.5,0.5,0.6c0.2,0.2,0.5,0.3,0.7,0.5c0.3,0.1,0.6,0.2,0.9,0.2
		c0.3,0,0.7-0.1,0.9-0.2c0.3-0.1,0.5-0.2,0.7-0.4c0.2-0.2,0.4-0.3,0.5-0.5l0.8,0.8c-0.2,0.3-0.5,0.5-0.8,0.7
		c-0.3,0.2-0.6,0.3-0.9,0.5c-0.4,0.1-0.8,0.2-1.2,0.2c-0.5,0-1-0.1-1.4-0.3c-0.4-0.2-0.8-0.4-1.1-0.8c-0.3-0.3-0.6-0.7-0.8-1.2
		c-0.2-0.4-0.3-0.9-0.3-1.4s0.1-1,0.2-1.4c0.2-0.4,0.4-0.8,0.7-1.2c0.3-0.3,0.7-0.6,1.1-0.8c0.4-0.2,0.9-0.3,1.4-0.3
		C53,177.5,53.4,177.6,53.8,177.8z M54.6,180.6c0-0.2-0.1-0.4-0.2-0.6c-0.1-0.2-0.2-0.4-0.4-0.6c-0.2-0.2-0.4-0.3-0.7-0.5
		s-0.6-0.2-0.9-0.2c-0.4,0-0.7,0.1-1,0.2s-0.5,0.3-0.7,0.5c-0.2,0.2-0.3,0.4-0.4,0.6c-0.1,0.2-0.2,0.4-0.2,0.6H54.6z"/>
	<path class="st4" d="M62.4,183.8c-0.1,0.1-0.2,0.2-0.3,0.3c-0.1,0.1-0.3,0.2-0.5,0.3c-0.2,0.1-0.4,0.2-0.7,0.3
		c-0.3,0.1-0.5,0.1-0.9,0.1c-0.5,0-0.9-0.1-1.3-0.3c-0.4-0.2-0.8-0.4-1.1-0.8c-0.3-0.3-0.5-0.7-0.7-1.2c-0.2-0.4-0.3-0.9-0.3-1.4
		s0.1-1,0.3-1.4c0.2-0.4,0.4-0.8,0.7-1.2c0.3-0.3,0.7-0.6,1.1-0.8c0.4-0.2,0.8-0.3,1.3-0.3c0.4,0,0.8,0.1,1.1,0.2
		c0.3,0.1,0.5,0.3,0.7,0.4c0.2,0.2,0.4,0.4,0.5,0.6v-1h1.2v7c0,0.6-0.1,1.1-0.3,1.6c-0.2,0.4-0.4,0.8-0.8,1.1
		c-0.3,0.3-0.7,0.5-1.2,0.7c-0.4,0.1-0.9,0.2-1.4,0.2c-0.5,0-0.9-0.1-1.3-0.2s-0.7-0.3-1-0.5c-0.3-0.2-0.6-0.4-0.8-0.7l0.8-0.9
		c0.2,0.2,0.4,0.4,0.6,0.6c0.2,0.1,0.4,0.3,0.7,0.4c0.3,0.1,0.6,0.2,0.9,0.2c0.7,0,1.3-0.2,1.7-0.6c0.4-0.4,0.6-1,0.6-1.8V183.8z
		 M62.4,179.9c-0.1-0.2-0.3-0.4-0.5-0.6c-0.2-0.1-0.4-0.3-0.6-0.4s-0.6-0.2-0.9-0.2c-0.4,0-0.7,0.1-1,0.2s-0.5,0.3-0.7,0.5
		c-0.2,0.2-0.4,0.5-0.5,0.8s-0.2,0.6-0.2,1s0.1,0.7,0.2,1s0.3,0.6,0.5,0.8c0.2,0.2,0.4,0.4,0.7,0.5s0.6,0.2,1,0.2
		c0.3,0,0.7-0.1,0.9-0.2s0.5-0.3,0.6-0.4c0.2-0.2,0.4-0.4,0.5-0.6V179.9z"/>
	<path class="st4" d="M69.9,177.8c0.4,0.2,0.8,0.4,1.1,0.7c0.3,0.3,0.5,0.7,0.7,1.2s0.3,1,0.3,1.5c0,0.1,0,0.1,0,0.2
		c0,0.1,0,0.1,0,0.2h-5.6c0,0.3,0.1,0.5,0.2,0.8c0.1,0.2,0.3,0.5,0.5,0.6c0.2,0.2,0.5,0.3,0.7,0.5c0.3,0.1,0.6,0.2,0.9,0.2
		c0.3,0,0.7-0.1,0.9-0.2c0.3-0.1,0.5-0.2,0.7-0.4c0.2-0.2,0.4-0.3,0.5-0.5l0.8,0.8c-0.2,0.3-0.5,0.5-0.8,0.7
		c-0.3,0.2-0.6,0.3-0.9,0.5c-0.4,0.1-0.8,0.2-1.2,0.2c-0.5,0-1-0.1-1.4-0.3c-0.4-0.2-0.8-0.4-1.1-0.8c-0.3-0.3-0.6-0.7-0.8-1.2
		c-0.2-0.4-0.3-0.9-0.3-1.4s0.1-1,0.2-1.4c0.2-0.4,0.4-0.8,0.7-1.2c0.3-0.3,0.7-0.6,1.1-0.8c0.4-0.2,0.9-0.3,1.4-0.3
		C69,177.5,69.5,177.6,69.9,177.8z M70.7,180.6c0-0.2-0.1-0.4-0.2-0.6c-0.1-0.2-0.2-0.4-0.4-0.6c-0.2-0.2-0.4-0.3-0.7-0.5
		s-0.6-0.2-0.9-0.2c-0.4,0-0.7,0.1-1,0.2s-0.5,0.3-0.7,0.5c-0.2,0.2-0.3,0.4-0.4,0.6c-0.1,0.2-0.2,0.4-0.2,0.6H70.7z"/>
	<path class="st4" d="M77.7,177.7c0.3,0.1,0.6,0.3,0.8,0.5c0.2,0.2,0.4,0.5,0.6,0.8c0.1,0.3,0.2,0.7,0.2,1.1v4.5H78v-4.2
		c0-0.6-0.2-1-0.5-1.3c-0.3-0.3-0.7-0.4-1.2-0.4c-0.3,0-0.5,0.1-0.7,0.2c-0.2,0.1-0.4,0.3-0.5,0.4c-0.2,0.2-0.3,0.4-0.4,0.6v4.8
		h-1.3v-6.9h1.2v1c0.1-0.2,0.3-0.4,0.5-0.6c0.2-0.1,0.4-0.3,0.7-0.4c0.3-0.1,0.6-0.2,1-0.2C77,177.5,77.4,177.6,77.7,177.7z"/>
	<path class="st4" d="M85.1,177.7c0.3,0.1,0.5,0.2,0.7,0.4c0.2,0.2,0.4,0.3,0.5,0.5v-5.3h1.3v11.3h-1.2v-1c-0.1,0.2-0.3,0.4-0.5,0.6
		c-0.2,0.2-0.4,0.3-0.7,0.4c-0.3,0.1-0.7,0.2-1.1,0.2c-0.5,0-0.9-0.1-1.3-0.3c-0.4-0.2-0.8-0.4-1.1-0.8c-0.3-0.3-0.5-0.7-0.7-1.2
		c-0.2-0.4-0.3-0.9-0.3-1.4s0.1-1,0.3-1.4c0.2-0.4,0.4-0.8,0.7-1.2c0.3-0.3,0.7-0.6,1.1-0.8c0.4-0.2,0.8-0.3,1.3-0.3
		C84.5,177.5,84.8,177.6,85.1,177.7z M86.3,179.9c-0.1-0.2-0.3-0.4-0.5-0.6c-0.2-0.2-0.4-0.3-0.6-0.4c-0.3-0.1-0.6-0.2-0.9-0.2
		c-0.3,0-0.7,0.1-0.9,0.2c-0.3,0.1-0.5,0.3-0.7,0.5c-0.2,0.2-0.4,0.5-0.5,0.8c-0.1,0.3-0.2,0.6-0.2,1s0.1,0.7,0.2,1s0.3,0.6,0.5,0.8
		c0.2,0.2,0.4,0.4,0.7,0.5s0.6,0.2,1,0.2c0.3,0,0.7-0.1,0.9-0.2s0.5-0.3,0.6-0.4c0.2-0.2,0.4-0.4,0.5-0.6V179.9z"/>
	<path class="st4" d="M94.1,177.8c0.4,0.2,0.8,0.4,1.1,0.7c0.3,0.3,0.5,0.7,0.7,1.2s0.3,1,0.3,1.5c0,0.1,0,0.1,0,0.2
		c0,0.1,0,0.1,0,0.2h-5.6c0,0.3,0.1,0.5,0.2,0.8c0.1,0.2,0.3,0.5,0.5,0.6c0.2,0.2,0.5,0.3,0.7,0.5c0.3,0.1,0.6,0.2,0.9,0.2
		c0.3,0,0.7-0.1,0.9-0.2c0.3-0.1,0.5-0.2,0.7-0.4c0.2-0.2,0.4-0.3,0.5-0.5l0.8,0.8c-0.2,0.3-0.5,0.5-0.8,0.7
		c-0.3,0.2-0.6,0.3-0.9,0.5c-0.4,0.1-0.8,0.2-1.2,0.2c-0.5,0-1-0.1-1.4-0.3c-0.4-0.2-0.8-0.4-1.1-0.8c-0.3-0.3-0.6-0.7-0.8-1.2
		c-0.2-0.4-0.3-0.9-0.3-1.4s0.1-1,0.2-1.4c0.2-0.4,0.4-0.8,0.7-1.2c0.3-0.3,0.7-0.6,1.1-0.8c0.4-0.2,0.9-0.3,1.4-0.3
		C93.2,177.5,93.7,177.6,94.1,177.8z M94.9,180.6c0-0.2-0.1-0.4-0.2-0.6c-0.1-0.2-0.2-0.4-0.4-0.6c-0.2-0.2-0.4-0.3-0.7-0.5
		s-0.6-0.2-0.9-0.2c-0.4,0-0.7,0.1-1,0.2s-0.5,0.3-0.7,0.5c-0.2,0.2-0.3,0.4-0.4,0.6c-0.1,0.2-0.2,0.4-0.2,0.6H94.9z"/>
	<path class="st4" d="M103.8,184.7h-3.6l8.2-21h3.7l8.2,21h-3.6l-1.9-5h-8.9L103.8,184.7z M113.3,176.4l-3.1-8.2l-3.1,8.2H113.3z"/>
	<path class="st4" d="M125.6,177.7c0.3,0.1,0.6,0.3,0.8,0.5c0.2,0.2,0.4,0.5,0.6,0.8c0.1,0.3,0.2,0.7,0.2,1.1v4.5h-1.3v-4.2
		c0-0.6-0.2-1-0.5-1.3c-0.3-0.3-0.7-0.4-1.2-0.4c-0.3,0-0.5,0.1-0.7,0.2s-0.4,0.3-0.5,0.4c-0.2,0.2-0.3,0.4-0.4,0.6v4.8h-1.3v-6.9
		h1.2v1c0.1-0.2,0.3-0.4,0.5-0.6c0.2-0.1,0.4-0.3,0.7-0.4s0.6-0.2,1-0.2C124.9,177.5,125.3,177.6,125.6,177.7z"/>
	<path class="st4" d="M134.2,183.8c-0.1,0.1-0.2,0.2-0.3,0.3s-0.3,0.2-0.5,0.3c-0.2,0.1-0.4,0.2-0.7,0.3c-0.3,0.1-0.5,0.1-0.9,0.1
		c-0.5,0-0.9-0.1-1.3-0.3c-0.4-0.2-0.8-0.4-1.1-0.8c-0.3-0.3-0.5-0.7-0.7-1.2c-0.2-0.4-0.3-0.9-0.3-1.4s0.1-1,0.3-1.4
		c0.2-0.4,0.4-0.8,0.7-1.2c0.3-0.3,0.7-0.6,1.1-0.8c0.4-0.2,0.9-0.3,1.3-0.3c0.4,0,0.8,0.1,1.1,0.2c0.3,0.1,0.5,0.3,0.7,0.4
		c0.2,0.2,0.4,0.4,0.5,0.6v-1h1.2v7c0,0.6-0.1,1.1-0.3,1.6c-0.2,0.4-0.5,0.8-0.8,1.1c-0.3,0.3-0.7,0.5-1.2,0.7
		c-0.4,0.1-0.9,0.2-1.4,0.2c-0.5,0-0.9-0.1-1.3-0.2s-0.7-0.3-1-0.5c-0.3-0.2-0.6-0.4-0.8-0.7l0.8-0.9c0.2,0.2,0.4,0.4,0.6,0.6
		c0.2,0.1,0.4,0.3,0.7,0.4c0.3,0.1,0.6,0.2,0.9,0.2c0.7,0,1.3-0.2,1.7-0.6c0.4-0.4,0.6-1,0.6-1.8V183.8z M134.2,179.9
		c-0.1-0.2-0.3-0.4-0.5-0.6c-0.2-0.1-0.4-0.3-0.6-0.4s-0.5-0.2-0.9-0.2c-0.4,0-0.7,0.1-1,0.2c-0.3,0.1-0.5,0.3-0.7,0.5
		c-0.2,0.2-0.4,0.5-0.5,0.8s-0.2,0.6-0.2,1s0.1,0.7,0.2,1s0.3,0.6,0.5,0.8c0.2,0.2,0.4,0.4,0.7,0.5c0.3,0.1,0.6,0.2,1,0.2
		c0.3,0,0.7-0.1,0.9-0.2s0.5-0.3,0.6-0.4c0.2-0.2,0.4-0.4,0.5-0.6V179.9z"/>
	<path class="st4" d="M141.7,177.8c0.4,0.2,0.8,0.4,1.1,0.7c0.3,0.3,0.5,0.7,0.7,1.2c0.2,0.5,0.3,1,0.3,1.5c0,0.1,0,0.1,0,0.2
		c0,0.1,0,0.1,0,0.2h-5.6c0,0.3,0.1,0.5,0.2,0.8c0.1,0.2,0.3,0.5,0.5,0.6c0.2,0.2,0.5,0.3,0.7,0.5c0.3,0.1,0.6,0.2,0.9,0.2
		c0.4,0,0.7-0.1,0.9-0.2c0.3-0.1,0.5-0.2,0.7-0.4c0.2-0.2,0.4-0.3,0.5-0.5l0.8,0.8c-0.2,0.3-0.5,0.5-0.8,0.7
		c-0.3,0.2-0.6,0.3-0.9,0.5c-0.4,0.1-0.8,0.2-1.2,0.2c-0.5,0-1-0.1-1.4-0.3c-0.4-0.2-0.8-0.4-1.1-0.8s-0.6-0.7-0.8-1.2
		c-0.2-0.4-0.3-0.9-0.3-1.4s0.1-1,0.2-1.4c0.2-0.4,0.4-0.8,0.7-1.2c0.3-0.3,0.7-0.6,1.1-0.8c0.4-0.2,0.9-0.3,1.4-0.3
		C140.9,177.5,141.3,177.6,141.7,177.8z M142.5,180.6c0-0.2-0.1-0.4-0.2-0.6c-0.1-0.2-0.2-0.4-0.4-0.6c-0.2-0.2-0.4-0.3-0.7-0.5
		c-0.3-0.1-0.6-0.2-0.9-0.2c-0.4,0-0.7,0.1-1,0.2c-0.3,0.1-0.5,0.3-0.7,0.5c-0.2,0.2-0.3,0.4-0.4,0.6c-0.1,0.2-0.2,0.4-0.2,0.6
		H142.5z"/>
	<path class="st4" d="M149.8,177.7c0.3,0.1,0.6,0.3,0.8,0.5c0.2,0.2,0.4,0.5,0.6,0.8c0.1,0.3,0.2,0.7,0.2,1.1v4.5h-1.3v-4.2
		c0-0.6-0.2-1-0.5-1.3c-0.3-0.3-0.7-0.4-1.2-0.4c-0.3,0-0.5,0.1-0.7,0.2s-0.4,0.3-0.5,0.4c-0.2,0.2-0.3,0.4-0.4,0.6v4.8h-1.3v-11.3
		h1.3v5.3c0-0.1,0.1-0.2,0.2-0.3c0.1-0.1,0.2-0.2,0.4-0.3c0.2-0.1,0.4-0.2,0.6-0.3c0.2-0.1,0.5-0.1,0.8-0.1
		C149.1,177.5,149.5,177.6,149.8,177.7z"/>
	<path class="st4" d="M157.8,177.8c0.4,0.2,0.8,0.4,1.1,0.8c0.3,0.3,0.6,0.7,0.8,1.2c0.2,0.4,0.3,0.9,0.3,1.4s-0.1,1-0.3,1.4
		c-0.2,0.4-0.4,0.8-0.8,1.2c-0.3,0.3-0.7,0.6-1.1,0.8c-0.4,0.2-0.9,0.3-1.4,0.3s-1-0.1-1.4-0.3c-0.4-0.2-0.8-0.4-1.1-0.8
		c-0.3-0.3-0.6-0.7-0.8-1.2c-0.2-0.4-0.3-0.9-0.3-1.4s0.1-1,0.3-1.4s0.4-0.8,0.8-1.2c0.3-0.3,0.7-0.6,1.1-0.8
		c0.4-0.2,0.9-0.3,1.4-0.3S157.4,177.6,157.8,177.8z M157.3,183.5c0.3-0.1,0.5-0.3,0.7-0.5c0.2-0.2,0.4-0.5,0.5-0.8
		c0.1-0.3,0.2-0.6,0.2-1s-0.1-0.7-0.2-1c-0.1-0.3-0.3-0.6-0.5-0.8c-0.2-0.2-0.4-0.4-0.7-0.5c-0.3-0.1-0.6-0.2-1-0.2
		c-0.3,0-0.7,0.1-1,0.2s-0.5,0.3-0.7,0.5c-0.2,0.2-0.4,0.5-0.5,0.8c-0.1,0.3-0.2,0.6-0.2,1s0.1,0.7,0.2,1c0.1,0.3,0.3,0.6,0.5,0.8
		c0.2,0.2,0.4,0.4,0.7,0.5s0.6,0.2,1,0.2C156.7,183.7,157.1,183.6,157.3,183.5z M154.4,174.9c0.2-0.2,0.4-0.3,0.6-0.3
		c0.2,0,0.4,0.1,0.6,0.3s0.3,0.4,0.3,0.6c0,0.2-0.1,0.4-0.3,0.6s-0.4,0.3-0.6,0.3c-0.2,0-0.4-0.1-0.6-0.3s-0.3-0.4-0.3-0.6
		C154.2,175.3,154.3,175.1,154.4,174.9z M157.2,174.9c0.2-0.2,0.4-0.3,0.6-0.3c0.2,0,0.4,0.1,0.6,0.3s0.3,0.4,0.3,0.6
		c0,0.2-0.1,0.4-0.3,0.6s-0.4,0.3-0.6,0.3c-0.2,0-0.4-0.1-0.6-0.3c-0.2-0.2-0.3-0.4-0.3-0.6C156.9,175.3,157,175.1,157.2,174.9z"/>
	<path class="st4" d="M164.9,177.6c0.1,0,0.2,0,0.3,0.1c0.1,0,0.2,0.1,0.3,0.1l-0.5,1.1c-0.1,0-0.1-0.1-0.2-0.1
		c-0.2,0-0.4-0.1-0.6-0.1c-0.3,0-0.5,0.1-0.7,0.2c-0.2,0.1-0.4,0.3-0.5,0.4c-0.2,0.2-0.3,0.4-0.4,0.6v4.8h-1.3v-6.9h1.2v1.1
		c0.1-0.2,0.3-0.4,0.5-0.6c0.2-0.1,0.4-0.3,0.6-0.4s0.5-0.2,0.9-0.2C164.6,177.5,164.8,177.6,164.9,177.6z"/>
	<path class="st4" d="M166.8,174.9c0.2-0.2,0.4-0.3,0.6-0.3c0.2,0,0.4,0.1,0.6,0.3s0.3,0.4,0.3,0.6c0,0.2-0.1,0.4-0.3,0.6
		s-0.4,0.3-0.6,0.3c-0.2,0-0.4-0.1-0.6-0.3s-0.3-0.4-0.3-0.6C166.5,175.3,166.6,175.1,166.8,174.9z M166.7,177.7h1.3v6.9h-1.3V177.7
		z"/>
	<path class="st4" d="M175.2,183.8c-0.1,0.1-0.2,0.2-0.3,0.3s-0.3,0.2-0.5,0.3c-0.2,0.1-0.4,0.2-0.7,0.3c-0.3,0.1-0.5,0.1-0.9,0.1
		c-0.5,0-0.9-0.1-1.3-0.3c-0.4-0.2-0.8-0.4-1.1-0.8c-0.3-0.3-0.5-0.7-0.7-1.2c-0.2-0.4-0.3-0.9-0.3-1.4s0.1-1,0.3-1.4
		s0.4-0.8,0.7-1.2c0.3-0.3,0.7-0.6,1.1-0.8c0.4-0.2,0.9-0.3,1.3-0.3c0.4,0,0.8,0.1,1.1,0.2c0.3,0.1,0.5,0.3,0.7,0.4
		c0.2,0.2,0.4,0.4,0.5,0.6v-1h1.2v7c0,0.6-0.1,1.1-0.3,1.6c-0.2,0.4-0.5,0.8-0.8,1.1c-0.3,0.3-0.7,0.5-1.2,0.7
		c-0.4,0.1-0.9,0.2-1.4,0.2c-0.5,0-0.9-0.1-1.3-0.2s-0.7-0.3-1-0.5c-0.3-0.2-0.6-0.4-0.8-0.7l0.8-0.9c0.2,0.2,0.4,0.4,0.6,0.6
		c0.2,0.1,0.4,0.3,0.7,0.4c0.3,0.1,0.6,0.2,0.9,0.2c0.7,0,1.3-0.2,1.7-0.6c0.4-0.4,0.6-1,0.6-1.8V183.8z M175.2,179.9
		c-0.1-0.2-0.3-0.4-0.5-0.6c-0.2-0.1-0.4-0.3-0.6-0.4s-0.5-0.2-0.9-0.2c-0.4,0-0.7,0.1-1,0.2c-0.3,0.1-0.5,0.3-0.7,0.5
		c-0.2,0.2-0.4,0.5-0.5,0.8c-0.1,0.3-0.2,0.6-0.2,1s0.1,0.7,0.2,1c0.1,0.3,0.3,0.6,0.5,0.8c0.2,0.2,0.4,0.4,0.7,0.5
		c0.3,0.1,0.6,0.2,1,0.2c0.3,0,0.7-0.1,0.9-0.2s0.5-0.3,0.6-0.4c0.2-0.2,0.4-0.4,0.5-0.6V179.9z"/>
	<path class="st4" d="M182.7,177.8c0.4,0.2,0.8,0.4,1.1,0.7c0.3,0.3,0.5,0.7,0.7,1.2c0.2,0.5,0.3,1,0.3,1.5c0,0.1,0,0.1,0,0.2
		c0,0.1,0,0.1,0,0.2h-5.6c0,0.3,0.1,0.5,0.2,0.8c0.1,0.2,0.3,0.5,0.5,0.6c0.2,0.2,0.5,0.3,0.7,0.5c0.3,0.1,0.6,0.2,0.9,0.2
		c0.4,0,0.7-0.1,0.9-0.2c0.3-0.1,0.5-0.2,0.7-0.4c0.2-0.2,0.4-0.3,0.5-0.5l0.8,0.8c-0.2,0.3-0.5,0.5-0.8,0.7
		c-0.3,0.2-0.6,0.3-0.9,0.5c-0.4,0.1-0.8,0.2-1.2,0.2c-0.5,0-1-0.1-1.4-0.3c-0.4-0.2-0.8-0.4-1.1-0.8s-0.6-0.7-0.8-1.2
		c-0.2-0.4-0.3-0.9-0.3-1.4s0.1-1,0.2-1.4c0.2-0.4,0.4-0.8,0.7-1.2c0.3-0.3,0.7-0.6,1.1-0.8c0.4-0.2,0.9-0.3,1.4-0.3
		C181.9,177.5,182.3,177.6,182.7,177.8z M183.6,180.6c0-0.2-0.1-0.4-0.2-0.6c-0.1-0.2-0.2-0.4-0.4-0.6c-0.2-0.2-0.4-0.3-0.7-0.5
		c-0.3-0.1-0.6-0.2-0.9-0.2c-0.4,0-0.7,0.1-1,0.2c-0.3,0.1-0.5,0.3-0.7,0.5c-0.2,0.2-0.3,0.4-0.4,0.6c-0.1,0.2-0.2,0.4-0.2,0.6
		H183.6z"/>
</g>
</svg>
