<svg ns="http://www.w3.org/2000/svg" viewBox="0 -64 1024 1024" width="28" height="28">
<path d="M354.099 601.269h82.466v82.466c.036 18.922 15.376 34.25 34.299 34.266h82.304c18.916-.02 34.245-15.35 34.263-34.265v-82.468h82.47c18.923-.035 34.251-15.375 34.266-34.299v-82.3c-.017-18.919-15.348-34.251-34.265-34.27h-82.471v-82.466c-.017-18.917-15.346-34.248-34.261-34.266h-82.304c-18.925.016-34.266 15.344-34.301 34.263v82.469h-82.466c-18.918.02-34.248 15.352-34.266 34.268v82.301c.017 18.925 15.344 34.264 34.263 34.301h.003zM354.099 484.533h99.533c.004 0 .009 0 .013 0 9.418 0 17.053-7.635 17.053-17.053 0-.005 0-.009 0-.014v.001l.167-99.666 82.432.133v99.533c0 .003 0 .006 0 .009 0 9.421 7.637 17.057 17.057 17.057.003 0 .006 0 .01 0v0l99.669.137-.133 82.466h-99.536c-.003 0-.006 0-.009 0-9.421 0-17.057 7.637-17.057 17.057 0 .003 0 .006 0 .01v0l-.13 99.666-82.47-.133v-99.533c0-.004 0-.009 0-.013 0-9.418-7.635-17.053-17.053-17.053-.005 0-.009 0-.014 0h.001l-99.666-.167zM925.399 834.734c28.241-.042 51.124-22.925 51.166-51.162v-554.404c-.042-28.241-22.925-51.124-51.162-51.166h-260.138v-65.536c-.032-28.264-22.936-51.168-51.197-51.2h-204.134c-28.264.032-51.168 22.936-51.2 51.197v65.539h-260.134c-28.241.042-51.124 22.925-51.166 51.162v554.404c.042 28.241 22.925 51.124 51.162 51.166h.004zM392.868 112.466c.019-9.418 7.649-17.047 17.065-17.067h204.133c9.418.019 17.047 7.649 17.067 17.065v65.538h-238.264zM81.568 783.568v-554.4c.005-9.405 7.628-17.028 17.032-17.033h826.799c9.405.004 17.029 7.627 17.033 17.032v0 554.4c-.004 9.405-7.627 17.029-17.032 17.033h-826.798c-9.405-.005-17.028-7.628-17.033-17.032v0z"/>
</svg>
