<svg ns="http://www.w3.org/2000/svg" viewBox="0 -64 1024 1024" width="28" height="28">
<path d="M512 908.8c254.493 0 460.8-206.307 460.8-460.8s-206.307-460.8-460.8-460.8c-254.493 0-460.8 206.307-460.8 460.8v0c.286 254.378 206.422 460.514 460.773 460.8h.027zM512 21.333c235.641 0 426.667 191.025 426.667 426.667s-191.025 426.667-426.667 426.667c-235.641 0-426.667-191.025-426.667-426.667v0c.273-235.532 191.135-426.393 426.64-426.667h.026zM390.618 312.433c1.33.37 2.857.583 4.434.583 7.833 0 14.44-5.253 16.488-12.429l.03-.121c16.524-42.975 57.467-72.92 105.404-72.92 2.291 0 4.566.068 6.823.203l-.311-.015c64.283 0 114.616 38.598 114.616 87.9 0 50.033-31.034 70.065-82.135 97.133-49.711 22.339-84.298 70.245-87.118 126.52l-.014.347c0 9.426 7.641 17.067 17.067 17.067s17.067-7.641 17.067-17.067v0c3.558-43.384 30.601-79.69 68.265-96.442l.736-.292c46.998-24.866 100.267-53.067 100.267-127.266 0-68.434-65.335-122.033-148.75-122.033-2.271-.127-4.929-.199-7.604-.199-63.291 0-117.116 40.529-136.937 97.05l-.311 1.017c-.383 1.348-.603 2.897-.603 4.496 0 7.832 5.276 14.432 12.467 16.44l.12.029zM477.617 635.733c-.003 0-.006 0-.009 0-9.421 0-17.058 7.637-17.058 17.058 0 .003 0 .006 0 .009v0 68.267c0 9.426 7.641 17.067 17.067 17.067s17.067-7.641 17.067-17.067v0-68.267c0-.003 0-.007 0-.011 0-9.42-7.636-17.056-17.056-17.056-.004 0-.008 0-.012 0h.001z"/>
</svg>
