<svg ns="http://www.w3.org/2000/svg" viewBox="0 -64 1024 1024" width="28" height="28">
<path d="M343.618 436.75l-10.718 4.367c-27.667 11.283-101.25 41.4-126.867 52.634-52.482 24.803-88.305 76.995-89.066 137.634l-.001.1v259.4c0 9.426 7.641 17.067 17.067 17.067s17.067-7.641 17.067-17.067v0-259.4c.511-46.918 28.13-87.264 67.913-106.159l.72-.308c25.45-11.167 98.566-41.084 126.083-52.317l10.6-4.317c6.277-2.614 10.61-8.699 10.61-15.796 0-9.423-7.639-17.063-17.063-17.063-2.287 0-4.468.45-6.461 1.266l.114-.041zM818.586 494.033c-31.183-15.15-133.983-55.633-138.35-57.35-1.859-.756-4.015-1.195-6.274-1.195-9.427 0-17.069 7.642-17.069 17.069 0 7.186 4.441 13.335 10.727 15.852l.115.041c1.05.417 105.933 41.717 135.933 56.283 41.025 18.848 69.041 59.504 69.233 106.725v259.425c0 9.426 7.641 17.067 17.067 17.067s17.067-7.641 17.067-17.067v0-259.4c-.518-60.572-36.156-112.698-87.522-137.054l-.929-.396zM627.302 31.75c-32.6-26.141-74.117-42.399-119.382-43.694l-.286-.006c-42.951 1.191-81.861 17.572-111.759 43.933l.192-.166c-48.383 47.75-51.867 104.333-51.867 191.85 2.352 44.992 12.972 86.934 30.364 125.142l-.88-2.16 2 5.25c27.217 71.7 61.5 113.15 104.8 126.717 9.566 2.128 20.553 3.347 31.825 3.347 1.339 0 2.674-.017 4.005-.051l-.197.004c.835.024 1.817.038 2.803.038 6.081 0 12.039-.523 17.833-1.526l-.619.089c46.7-11.417 83.267-53.633 111.783-129.067l2.167-5.717c16.327-35.789 26.827-77.419 29.115-121.224l.035-.843c.001-87.549-3.499-144.166-51.931-191.916zM618.169 333.633l-2.185 5.75c-23.9 63.217-53.483 99.55-87.683 107.917-3.892.307-8.427.482-13.003.482-8.677 0-17.206-.63-25.546-1.846l.949.114c-32.666-10.233-59.85-45-83.117-106.25l-2-5.283c-14.93-32.462-24.709-70.21-27.205-109.933l-.046-.917c0-4.556.077-8.499.102-12.818 2.357.117 5.119.184 7.896.184 37.532 0 72.219-12.178 100.326-32.797l-.474.332c19.342-14.925 43.924-23.922 70.608-23.922 3.118 0 6.207.123 9.263.364l-.404-.026c.227.011 .493.017 .76.017 9.199 0 16.657-7.458 16.657-16.657 0-.027 0-.054 0-.081v.004c.002-.098.003-.213.003-.328 0-9.309-7.442-16.88-16.701-17.088h-.019c-2.836-.191-6.147-.299-9.484-.299-33.699 0-64.807 11.088-89.877 29.815l.395-.282c-22.466 16.729-50.764 26.783-81.41 26.783-2.4 0-4.786-.062-7.156-.184l.332.014c2.208-57.163 10.654-90.736 40.902-120.596 23.541-20.077 53.98-32.698 87.33-33.909l.254-.007c36.225 1.387 69.279 13.893 96.129 34.178l-.429-.311c37.817 37.283 41.767 79.701 41.767 167.617-2.515 40.309-12.18 77.757-27.743 111.953l.809-1.986z"/>
</svg>
