<svg ns="http://www.w3.org/2000/svg" viewBox="0 -64 1024 1024" width="28" height="28">
<path d="M516.383 908.722c78.169 0 140.766-80.299 148.067-152.3.652-5.852 1.028-12.645 1.034-19.525v-52.218c2.059-1.153 3.788-2.646 5.17-4.423l.028-.038c22.449-29.431 35.968-66.725 35.968-107.176 0-.242 0-.484-.001-.726v.037c2.254-28.506 13.396-54.049 30.619-74.248l-.151.182c49.721-54.065 80.2-126.506 80.2-206.066 0-94.586-43.079-179.111-110.687-235.023l-.512-.412c-52.622-43.354-120.715-69.643-194.949-69.643-21.298 0-42.09 2.164-62.17 6.284l1.985-.34c-140.404 29.228-244.386 151.938-244.386 298.935 0 83.971 33.932 160.017 88.831 215.175l-.012-.012c13.83 16.301 22.24 37.58 22.24 60.823 0 .965-.015 1.927-.043 2.885l.003-.14c-.001.231-.002.504-.002.777 0 40.989 13.653 78.79 36.659 109.102l-.326-.448c3.111 4.034 7.933 6.618 13.36 6.656h.006v48.613c0 68.168 64 173.268 149.067 173.268zM516.383 874.589c-50.053 0-93.764-55.098-109.07-104.602h219.931c-12.192 48.247-54.586 104.602-110.862 104.602zM631.351 735.854h-229.878l-.024-.399v-54.364h229.902zM351.751 570.754c.014-.706.022-1.539.022-2.374 0-32.743-12.188-62.64-32.276-85.4l.121.14c-48.742-48.973-78.874-116.506-78.874-191.076 0-130.451 92.212-239.364 215.01-265.114l1.763-.309c16.304-3.48 35.035-5.473 54.232-5.473 149.864 0 271.361 121.452 271.434 271.299v.007c0 .038 0 .082 0 .126 0 70.536-27.062 134.751-71.37 182.829l.171-.188c-22.737 26.035-37.314 59.717-39.448 96.734l-.02.433c-.061 27.571-7.838 53.312-21.286 75.195l.359-.627h-108.52l120.515-253.502c1.046-2.146 1.657-4.668 1.657-7.333 0-9.42-7.636-17.056-17.056-17.056-6.755 0-12.592 3.926-15.355 9.621l-.044.101-117.354 246.845-116.446-246.777c-2.794-5.835-8.651-9.793-15.433-9.793-9.421 0-17.058 7.637-17.058 17.058 0 2.639.599 5.137 1.669 7.367l-.044-.103 119.651 253.57h-114.657c-13.375-21.721-21.316-48.03-21.361-76.19v-.012zM413.983 328.886l24.767-34.963 24.767 34.963c3.128 4.38 8.195 7.202 13.921 7.202 5.741 0 10.819-2.836 13.91-7.184l.035-.053 24.634-34.83 24.6 34.83c3.126 4.4 8.205 7.236 13.945 7.236 5.726 0 10.793-2.822 13.886-7.15l.035-.052 24.665-34.898 24.603 34.864c3.126 4.397 8.202 7.23 13.94 7.23 9.418 0 17.053-7.635 17.053-17.053 0-3.689-1.171-7.104-3.162-9.894l.035.052-38.533-54.6c-3.128-4.398-8.206-7.233-13.946-7.233-5.727 0-10.795 2.822-13.889 7.15l-.035.052-24.665 34.898-24.6-34.867c-3.123-4.398-8.197-7.233-13.933-7.233s-10.81 2.835-13.898 7.18l-.035.053-24.668 34.901-24.733-34.932c-3.264-4.157-8.29-6.802-13.933-6.802s-10.669 2.646-13.904 6.764l-.029.038-38.7 54.6c-1.947 2.736-3.112 6.146-3.112 9.827 0 9.428 7.643 17.072 17.072 17.072 5.715 0 10.773-2.808 13.872-7.119l.035-.051z"/>
</svg>
