<?xml version="1.0" encoding="UTF-8" standalone="no"?>
<!DOCTYPE svg PUBLIC "-//W3C//DTD SVG 1.0//EN" "http://www.w3.org/TR/2001/REC-SVG-20010904/DTD/svg10.dtd">
<!-- Created with Inkscape (http://www.inkscape.org/) -->
<svg
   xmlns:svg="http://www.w3.org/2000/svg"
   xmlns="http://www.w3.org/2000/svg"
   version="1.0"
   width="800"
   height="500"
   id="svg2">
  <defs
     id="defs4" />
  <g
     id="layer1">
    <rect
       width="779.66565"
       height="471.65118"
       ry="101.36391"
       x="12.965845"
       y="16.993191"
       id="rect3438"
       style="opacity:1;fill:none;fill-opacity:1;fill-rule:nonzero;stroke:#1f1e1c;stroke-width:5.65752029;stroke-linecap:butt;stroke-linejoin:round;stroke-miterlimit:4;stroke-dasharray:none;stroke-opacity:0.95686275" />
    <path
       d="M 179.58612,118.5644 C 126.18205,118.5644 82.730543,161.98644 82.730543,215.3905 L 82.730543,332.72513 L 111.01815,332.72513 L 111.01815,260.00242 L 384.90697,260.00242 L 384.90697,231.71482 L 111.01815,231.71482 L 111.01815,215.3905 C 111.01815,177.1684 141.36408,146.852 179.58612,146.852 L 384.90697,146.852 L 384.90697,118.5644 L 179.58612,118.5644 z M 422.06391,54.976229 L 422.06391,332.72513 L 450.35152,332.72513 L 450.35152,218.04247 C 450.35152,178.35327 482.58943,146.852 522.27864,146.852 L 626.26505,146.852 C 665.95427,146.852 697.48498,178.35327 697.48498,218.04247 L 697.48498,332.72513 L 725.77258,332.72513 L 725.77258,218.04247 C 725.77258,163.17121 681.13631,118.5644 626.26505,118.5644 L 522.27864,118.5644 C 494.01573,118.5644 468.48267,130.41031 450.35152,149.3861 L 450.35152,54.976229 L 422.06391,54.976229 z"
       id="rect3440"
       style="opacity:1;fill:#a40018;fill-opacity:1;fill-rule:nonzero;stroke:none;stroke-width:30;stroke-linecap:butt;stroke-linejoin:round;stroke-miterlimit:4;stroke-dasharray:none;stroke-opacity:1" />
    <path
       d="M 133.19577,416.68876 C 133.19555,424.70124 130.9997,431.10009 126.60822,435.88535 C 122.21665,440.6706 116.38077,443.06323 109.10056,443.06323 C 103.05556,443.06323 97.969502,441.36893 93.842385,437.98034 C 89.715242,434.59175 87.032365,429.96718 85.793751,424.10665 C 85.329191,421.90862 85.087068,419.57293 85.067383,417.09958 C 85.071269,409.31632 87.282947,403.04357 91.702408,398.28133 C 96.12186,393.51918 101.94864,391.13809 109.1828,391.13803 C 115.7308,391.13809 121.05465,393.0385 125.15436,396.83926 C 128.85631,400.27261 131.31216,404.85106 132.52189,410.57461 C 132.95745,412.63574 133.18207,414.67379 133.19577,416.68876 L 133.19577,416.68876 z M 126.29225,417.16875 C 126.31493,415.10767 126.13285,413.16185 125.746,411.33128 C 124.80711,406.88911 122.86706,403.39746 119.92589,400.85631 C 116.98463,398.31526 113.38516,397.04472 109.12743,397.04467 C 103.95299,397.04472 99.795521,398.8763 96.655053,402.53944 C 93.514544,406.20265 91.941567,411.05602 91.936112,417.09958 C 91.913378,419.1607 92.095608,421.10723 92.482801,422.93915 C 93.411602,427.33386 95.346695,430.80211 98.288077,433.3439 C 101.22942,435.8857 104.82968,437.1566 109.08886,437.1566 C 114.26185,437.1566 118.41895,435.32501 121.56019,431.66182 C 124.70134,427.99866 126.27868,423.16764 126.29225,417.16875 L 126.29225,417.16875 z M 176.54943,404.94255 C 176.53661,409.4309 174.32739,412.84255 169.92179,415.17752 C 172.72778,416.32198 174.74697,417.53523 175.97935,418.81729 C 177.21168,420.09938 178.04565,421.77097 178.48131,423.83206 C 178.70365,424.88429 178.8212,425.98262 178.83395,427.12704 C 178.80164,431.52314 177.26004,435.06055 174.20916,437.73929 C 171.15822,440.41803 167.11402,441.7574 162.07657,441.7574 L 140.85416,441.7574 L 140.93921,392.44386 L 162.6437,392.44386 C 166.26145,392.44392 169.28193,393.30224 171.70519,395.01885 C 174.12837,396.73555 175.65452,399.08206 176.28361,402.0584 C 176.47701,402.97371 176.56562,403.9351 176.54943,404.94255 L 176.54943,404.94255 z M 169.85175,405.42465 C 169.84336,404.73718 169.77627,404.09579 169.6505,403.50048 C 168.8956,399.92886 165.56485,398.14304 159.65824,398.143 L 147.57037,398.143 L 147.55065,413.32252 L 159.56935,413.32252 C 166.43874,413.32255 169.86621,410.68992 169.85175,405.42465 L 169.85175,405.42465 z M 172.21101,426.9908 C 172.20402,426.3033 172.13761,425.66192 172.01184,425.06663 C 171.12167,420.85501 167.33414,418.74919 160.64919,418.74917 L 147.53008,418.74917 L 147.54709,436.05617 L 161.76453,436.05617 C 165.10699,436.05617 167.68726,435.26632 169.50536,433.6866 C 171.32338,432.10689 172.22526,429.87496 172.21101,426.9908 L 172.21101,426.9908 z M 223.42887,392.44386 L 223.3735,398.3505 L 194.11278,398.3505 L 194.14761,413.46086 L 221.14042,413.46086 L 221.08296,419.3675 L 194.09225,419.3675 L 194.0714,435.85076 L 223.81212,435.85076 L 223.82381,441.7574 L 187.42188,441.7574 L 187.50903,392.44386 L 223.42887,392.44386 z M 272.34693,405.83547 C 272.35776,409.13326 271.51394,411.85812 269.81545,414.01001 C 268.94921,415.10836 267.50237,416.27586 265.4749,417.51251 C 268.54735,418.84002 270.36903,420.85431 270.93995,423.55539 C 271.12389,424.42597 271.25993,425.50263 271.34803,426.78538 L 271.79268,435.71242 C 271.82251,436.71993 271.89076,437.4759 271.99742,437.98034 C 272.21977,439.03255 272.95833,439.92546 274.21316,440.65908 L 274.23778,441.7574 L 266.06531,441.7574 C 265.84492,440.93296 265.67554,440.13158 265.5572,439.35324 C 265.17909,436.69826 264.97084,433.65342 264.93244,430.2187 C 264.92109,428.43288 264.81383,427.05929 264.61068,426.09788 C 264.35902,424.90735 263.81092,423.83139 262.96639,422.86998 C 261.6393,421.35807 259.34995,420.60208 256.09833,420.60206 L 239.95882,420.60206 L 239.96543,441.7574 L 233.3042,441.7574 L 233.38926,392.44386 L 256.19208,392.44386 C 265.35035,392.44392 270.62618,395.74028 272.01959,402.33298 C 272.25197,403.43275 272.36108,404.60023 272.34693,405.83547 L 272.34693,405.83547 z M 265.51091,406.31756 C 265.50159,405.40092 265.41957,404.57648 265.26486,403.84422 C 264.46152,400.04345 261.58724,398.14304 256.64202,398.143 L 240.02042,398.143 L 239.99096,414.90293 L 255.44507,414.90293 C 262.13001,414.90296 265.48529,412.04117 265.51091,406.31756 L 265.51091,406.31756 z M 327.70829,416.68876 C 327.69459,414.67379 327.46996,412.63574 327.0344,410.57461 C 325.82467,404.85106 323.36883,400.27261 319.66688,396.83926 C 315.56716,393.0385 310.24331,391.13809 303.69532,391.13803 C 296.46117,391.13809 290.63438,393.51918 286.21493,398.28133 C 281.79547,403.04357 279.5838,409.31632 279.57991,417.09958 C 279.59959,419.57293 279.84171,421.90862 280.30628,424.10665 C 281.54489,429.96718 284.22777,434.59175 288.35491,437.98034 C 292.48203,441.36893 297.56808,443.06323 303.61308,443.06323 C 310.8933,443.06323 316.72917,440.6706 321.12075,435.88535 C 325.51222,431.10009 327.70807,424.70124 327.70829,416.68876 L 327.70829,416.68876 z M 320.80477,417.16875 C 320.7912,423.16764 319.21386,427.99866 316.0727,431.66182 C 312.93148,435.32501 308.77437,437.1566 303.60137,437.1566 C 299.34219,437.1566 295.74195,435.8857 292.80059,433.3439 C 289.85921,430.80211 287.92413,427.33386 286.99532,422.93915 C 286.60814,421.10723 286.4259,419.1607 286.44863,417.09958 C 286.45408,411.05602 288.02707,406.20265 291.16757,402.53944 C 294.30803,398.8763 298.46551,397.04472 303.63994,397.04467 C 307.89768,397.04472 311.49715,398.31526 314.4384,400.85631 C 317.37959,403.39746 319.31963,406.88911 320.25853,411.33128 C 320.64536,413.16185 320.82744,415.10767 320.80477,417.16875 L 320.80477,417.16875 z M 311.41128,379.87391 L 305.16089,379.87391 L 305.13014,386.87888 L 311.38053,386.87888 L 311.41128,379.87391 z M 300.28549,379.87391 L 294.0351,379.87391 L 294.00436,386.87888 L 300.25475,386.87888 L 300.28549,379.87391 z M 371.53779,406.86672 L 365.2874,406.86672 C 365.24264,406.22536 365.16225,405.63009 365.04621,405.08089 C 363.88494,399.58651 359.82488,396.8393 352.86608,396.83926 C 349.38522,396.8393 346.67117,397.59458 344.72393,399.10508 C 342.77665,400.61567 341.80915,402.69912 341.82144,405.35548 C 341.81029,405.95079 341.85788,406.49994 341.96421,407.00296 C 342.4772,409.4302 344.36772,411.00992 347.6358,411.7421 L 361.71172,414.97 C 367.87227,416.38975 371.49448,419.66377 372.57841,424.79205 C 372.80103,425.84567 372.90543,426.99081 372.89155,428.22746 C 372.87241,432.89745 371.13523,436.53756 367.68002,439.14783 C 364.22474,441.7581 359.3838,443.06323 353.15719,443.06323 C 346.33387,443.06323 341.20267,441.20823 337.76359,437.49825 C 336.76286,436.44603 335.94321,435.27855 335.3046,433.99576 C 334.28484,431.98078 333.73214,429.25663 333.64651,425.8233 L 339.89691,425.8233 C 339.96314,426.7847 340.08338,427.67761 340.25765,428.50204 C 341.506,434.40869 346.04487,437.36201 353.8743,437.36201 C 362.25424,437.36201 366.44727,434.45411 366.45342,428.63828 C 366.46896,426.76164 365.93942,425.22804 364.86479,424.03747 C 363.61166,422.66389 360.62545,421.42723 355.90612,420.32749 L 345.86517,417.9925 C 339.98959,416.61891 336.57279,413.6656 335.61474,409.13254 C 335.4213,408.2173 335.32782,407.23285 335.33431,406.17921 C 335.3087,401.50927 336.89017,397.83492 340.07872,395.15614 C 343.26727,392.47745 347.60875,391.13809 353.10319,391.13803 C 356.62871,391.13809 359.77143,391.71029 362.53138,392.85469 C 365.94471,394.27445 368.37328,396.44944 369.81707,399.37966 C 370.6989,401.16553 371.27247,403.66121 371.53779,406.86672 L 371.53779,406.86672 z M 417.11765,392.44386 L 417.06018,398.3505 L 400.37151,398.3505 L 400.34183,441.7574 L 393.67852,441.7574 L 393.70819,398.3505 L 377.01953,398.3505 L 377.0749,392.44386 L 417.11765,392.44386 z M 459.92928,392.44386 L 459.87391,398.3505 L 430.61318,398.3505 L 430.64803,413.46086 L 457.64082,413.46086 L 457.58337,419.3675 L 430.59266,419.3675 L 430.57181,435.85076 L 460.31252,435.85076 L 460.32421,441.7574 L 423.92228,441.7574 L 424.00944,392.44386 L 459.92928,392.44386 z M 508.84731,405.83547 C 508.85814,409.13326 508.01432,411.85812 506.31585,414.01001 C 505.44961,415.10836 504.00277,416.27586 501.97529,417.51251 C 505.04775,418.84002 506.86942,420.85431 507.44035,423.55539 C 507.62429,424.42597 507.76032,425.50263 507.84842,426.78538 L 508.29307,435.71242 C 508.32291,436.71993 508.39116,437.4759 508.49781,437.98034 C 508.72016,439.03255 509.45872,439.92546 510.71355,440.65908 L 510.73817,441.7574 L 502.5657,441.7574 C 502.34531,440.93296 502.17594,440.13158 502.05759,439.35324 C 501.67947,436.69826 501.47123,433.65342 501.43285,430.2187 C 501.42147,428.43288 501.31421,427.05929 501.11107,426.09788 C 500.85941,424.90735 500.31131,423.83139 499.46677,422.86998 C 498.13969,421.35807 495.85033,420.60208 492.59872,420.60206 L 476.45921,420.60206 L 476.46581,441.7574 L 469.80459,441.7574 L 469.88964,392.44386 L 492.69247,392.44386 C 501.85074,392.44392 507.12657,395.74028 508.51999,402.33298 C 508.75236,403.43275 508.86147,404.60023 508.84731,405.83547 L 508.84731,405.83547 z M 502.0113,406.31756 C 502.00198,405.40092 501.91996,404.57648 501.76524,403.84422 C 500.9619,400.04345 498.08763,398.14304 493.14241,398.143 L 476.52082,398.143 L 476.49136,414.90293 L 491.94547,414.90293 C 498.63041,414.90296 501.98568,412.04117 502.0113,406.31756 L 502.0113,406.31756 z M 558.48155,405.83547 C 558.49238,409.13326 557.64856,411.85812 555.95007,414.01001 C 555.08384,415.10836 553.63699,416.27586 551.60952,417.51251 C 554.68197,418.84002 556.50366,420.85431 557.07458,423.55539 C 557.25852,424.42597 557.39455,425.50263 557.48265,426.78538 L 557.9273,435.71242 C 557.95714,436.71993 558.02538,437.4759 558.13204,437.98034 C 558.35439,439.03255 559.09296,439.92546 560.34777,440.65908 L 560.37239,441.7574 L 552.19993,441.7574 C 551.97954,440.93296 551.81016,440.13158 551.69182,439.35324 C 551.31371,436.69826 551.10547,433.65342 551.06707,430.2187 C 551.05571,428.43288 550.94845,427.05929 550.7453,426.09788 C 550.49364,424.90735 549.94555,423.83139 549.10102,422.86998 C 547.77392,421.35807 545.48458,420.60208 542.23295,420.60206 L 526.09344,420.60206 L 526.10005,441.7574 L 519.43883,441.7574 L 519.52389,392.44386 L 542.3267,392.44386 C 551.48497,392.44392 556.7608,395.74028 558.15421,402.33298 C 558.3866,403.43275 558.4957,404.60023 558.48155,405.83547 L 558.48155,405.83547 z M 551.64554,406.31756 C 551.63622,405.40092 551.55418,404.57648 551.39948,403.84422 C 550.59614,400.04345 547.72187,398.14304 542.77664,398.143 L 526.15504,398.143 L 526.12559,414.90293 L 541.57969,414.90293 C 548.26463,414.90296 551.61992,412.04117 551.64554,406.31756 L 551.64554,406.31756 z M 604.94171,392.44386 L 604.88634,398.3505 L 575.62563,398.3505 L 575.66046,413.46086 L 602.65327,413.46086 L 602.5958,419.3675 L 575.60509,419.3675 L 575.58424,435.85076 L 605.32496,435.85076 L 605.33666,441.7574 L 568.93472,441.7574 L 569.02187,392.44386 L 604.94171,392.44386 z M 618.19128,392.44386 L 618.19128,441.7574 L 611.53006,441.7574 L 611.53006,392.44386 L 618.19128,392.44386 z M 672.33973,407.27754 L 665.88383,407.27754 C 665.02594,404.3026 663.92967,402.15066 662.59528,400.82173 C 660.09419,398.30374 656.62321,397.04472 652.18245,397.04467 C 647.09884,397.04472 643.11685,398.84207 640.23649,402.43674 C 637.35608,406.03148 635.91502,410.96521 635.91329,417.23792 C 635.8963,419.75599 636.10562,422.04556 636.54124,424.10665 C 638.37997,432.80662 643.46626,437.1566 651.80012,437.1566 C 656.5609,437.1566 660.28122,435.37077 662.96112,431.79911 C 664.28672,430.05802 665.40506,427.33317 666.31634,423.62456 L 672.77213,423.62456 C 672.64952,424.12902 672.50187,424.83888 672.32927,425.75413 C 671.05657,430.56246 669.42064,434.088 667.42135,436.33075 C 663.37851,440.81907 657.96926,443.06323 651.1935,443.06323 C 645.60683,443.06323 640.94082,441.46045 637.19543,438.25491 C 633.45003,435.04938 630.97737,430.60787 629.77745,424.93039 C 629.26445,422.50319 629.0153,419.91598 629.02994,417.16875 C 629.04096,409.20104 631.12585,402.87065 635.28467,398.17758 C 639.44346,393.48459 645.07144,391.13809 652.16861,391.13803 C 657.75524,391.13809 662.29771,392.53474 665.79604,395.32802 C 669.29429,398.12137 671.47546,402.10454 672.33973,407.27754 L 672.33973,407.27754 z M 721.91123,392.44386 L 721.82411,441.7574 L 715.16286,441.7574 L 715.17553,418.74917 L 689.41939,418.74917 L 689.40671,441.7574 L 682.74347,441.7574 L 682.83058,392.44386 L 689.49184,392.44386 L 689.40768,412.84252 L 715.16382,412.84252 L 715.24798,392.44386 L 721.91123,392.44386 z"
       id="text3482"
       style="font-size:72.84078979px;font-style:normal;font-variant:normal;font-weight:normal;font-stretch:normal;text-align:start;line-height:100%;writing-mode:lr-tb;text-anchor:start;fill:#201f1d;fill-opacity:1;stroke:#201f1d;stroke-width:0.94292009px;stroke-linecap:butt;stroke-linejoin:miter;stroke-opacity:1;font-family:HelveticaTextbook LT Oblique;-inkscape-font-specification:'HelveticaTextbook LT Oblique,'" />
    <path
       d="M 726.21935,367.98915 L 83.615163,367.46058"
       id="path3487"
       style="fill:#201f1d;fill-opacity:1;fill-rule:evenodd;stroke:#201f1d;stroke-width:3.90986133;stroke-linecap:butt;stroke-linejoin:miter;stroke-miterlimit:4;stroke-dasharray:none;stroke-opacity:1" />
  </g>
</svg>
