<svg ns="http://www.w3.org/2000/svg" viewBox="12 12 500 500" width="28" height="28">
<path d="M256,238c9.9,0,18,8.1,18,18s-8.1,18-18,18s-18-8.1-18-18S246.1,238,256,238 M256,224c-17.7,0-32,14.3-32,32s14.3,32,32,32   c17.7,0,32-14.3,32-32S273.7,224,256,224L256,224z"/><path d="M128.4,238c9.9,0,18,8.1,18,18s-8.1,18-18,18c-9.9,0-18-8.1-18-18S118.5,238,128.4,238 M128.4,224c-17.7,0-32,14.3-32,32   s14.3,32,32,32c17.7,0,32-14.3,32-32S146,224,128.4,224L128.4,224z"/><path d="M384,238c9.9,0,18,8.1,18,18s-8.1,18-18,18s-18-8.1-18-18S374.1,238,384,238 M384,224c-17.7,0-32,14.3-32,32s14.3,32,32,32   s32-14.3,32-32S401.7,224,384,224L384,224z"/>
</svg>
