<?xml version="1.0" encoding="utf-8"?>
<!-- Generator: Adobe Illustrator 24.0.0, SVG Export Plug-In . SVG Version: 6.00 Build 0)  -->
<svg version="1.1" id="Layer_1" xmlns="http://www.w3.org/2000/svg" xmlns:xlink="http://www.w3.org/1999/xlink" x="0px" y="0px"
	 viewBox="0 0 405.1 111.1" style="enable-background:new 0 0 405.1 111.1;" xml:space="preserve">
<style type="text/css">
	.st0{fill:#FFFFFF;}
</style>
<g>
	<path class="st0" d="M330.4,83.1v1.2h6.7l-7.2,9.8h9.2v-1.2h-7l7.2-9.8H330.4z M319.1,84.2h2.4V91c0,1.8,1,3.2,3.1,3.2
		c1.1,0,2.2-0.7,2.2-0.7l-0.5-1.1c0,0-0.8,0.5-1.6,0.5c-1.5,0-1.9-1-1.9-2.3v-6.6h3.7V83h-3.7v-3.5h-1.2V83h-2.4L319.1,84.2
		L319.1,84.2z M310.4,94.3c2.7,0,3.7-2.2,3.7-2.2V94h1.1V83.1H314v7.6c0,0-1,2.4-3.4,2.4c-1.8,0-3.1-1-3.1-3.2v-6.8h-1.2v7
		C306.3,93,308.3,94.3,310.4,94.3 M293.7,84.8v-9h-1.2V94h1.2v-7.6c0,0,1-2.4,3.4-2.4c1.8,0,3.1,1,3.1,3.2V94h1.2v-7
		c0-3-2.1-4.2-4.1-4.2C294.7,82.8,293.7,84.8,293.7,84.8 M283.8,93.1c-2.6,0-4.3-2.1-4.3-4.5c0-2.4,1.7-4.5,4.3-4.5
		c2.3,0,3.5,1.6,3.5,1.6l0.9-0.8c0,0-1.5-2.1-4.4-2.1c-3.3,0-5.6,2.6-5.6,5.8s2.4,5.8,5.6,5.8c3,0,4.5-2.2,4.5-2.2l-0.9-0.8
		C287.4,91.2,286.2,93.1,283.8,93.1 M266.1,91.9c0,0,1.4,2.3,4.7,2.3c2.1,0,4.1-1.1,4.1-3.1c0-2-1.6-2.7-3.7-3.1
		c-1.9-0.4-3.3-0.8-3.3-2.1c0-1.1,1.1-1.9,2.6-1.9c2,0,3.1,1.2,3.1,1.2l0.8-0.9c0,0-1.3-1.5-3.9-1.5c-2.4,0-3.9,1.5-3.9,3.1
		c0,1.8,1.5,2.7,3.9,3.3c1.7,0.4,3,0.8,3,2c0,1.4-1.7,1.9-2.9,1.9c-2.6,0-3.7-1.9-3.7-1.9L266.1,91.9z M257.9,82.8
		c-2.7,0-3.7,2.3-3.7,2.3v-2h-1.1V94h1.2v-7.6c0,0,1-2.4,3.4-2.4c1.8,0,3.1,1,3.1,3.2V94h1.2v-7C262,84,260,82.8,257.9,82.8
		 M239.7,87.9c0.1-1.2,1.1-3.9,4.1-3.9c2.9,0,4,2.6,4,3.9H239.7z M243.8,82.8c-3.3,0-5.4,2.7-5.4,5.8c0,3.1,2.4,5.8,5.6,5.8
		c1.8,0,3.5-1,4.6-2.2l-0.8-0.9c-0.7,0.9-2.1,1.9-3.7,1.9c-2.9,0-4.3-2.4-4.4-4h9.4c0-0.3,0-0.3,0-0.5
		C249.1,85.2,246.7,82.8,243.8,82.8 M227.7,84.2h2.4V91c0,1.8,1,3.2,3.1,3.2c1.1,0,2.2-0.7,2.2-0.7l-0.5-1.1c0,0-0.8,0.5-1.6,0.5
		c-1.5,0-1.9-1-1.9-2.3v-6.6h3.7V83h-3.7v-3.5h-1.2V83h-2.4V84.2z M219.8,82.8c-2.7,0-3.7,2.3-3.7,2.3v-2h-1.1V94h1.2v-7.6
		c0,0,1-2.4,3.4-2.4c1.8,0,3.1,1,3.1,3.2V94h1.2v-7C223.9,84,221.8,82.8,219.8,82.8 M201.5,87.9c0.1-1.2,1.1-3.9,4.1-3.9
		c2.9,0,4,2.6,4,3.9H201.5z M205.6,82.8c-3.3,0-5.4,2.7-5.4,5.8c0,3.1,2.4,5.8,5.6,5.8c1.8,0,3.5-1,4.6-2.2l-0.8-0.9
		c-0.7,0.9-2.1,1.9-3.7,1.9c-2.9,0-4.3-2.4-4.4-4h9.4c0-0.3,0-0.3,0-0.5C210.9,85.2,208.5,82.8,205.6,82.8 M189.4,86.1
		c0,0,0.8-2.1,2.9-2.1c1.7,0,2.7,1,2.7,3.2V94h1.2v-7.2c0-3.1-1.9-4-3.6-4c-2.4,0-3.4,2-3.5,2.1c-0.6-1.5-2-2.1-3.3-2.1
		c-2.4,0-3.4,2.1-3.4,2.1v-1.8h-1.1V94h1.2v-7.9c0,0,0.9-2.1,3-2.1c1.7,0,2.7,1,2.7,3.2V94h1.2V86.1z M171.4,94.3
		c2.7,0,3.7-2.2,3.7-2.2V94h1.1V83.1h-1.2v7.6c0,0-1,2.4-3.4,2.4c-1.8,0-3.1-1-3.1-3.2v-6.8h-1.2v7C167.4,93,169.4,94.3,171.4,94.3
		 M154.4,91.9c0,0,1.4,2.3,4.7,2.3c2.1,0,4.1-1.1,4.1-3.1c0-2-1.6-2.7-3.7-3.1c-1.9-0.4-3.3-0.8-3.3-2.1c0-1.1,1.1-1.9,2.6-1.9
		c2,0,3.1,1.2,3.1,1.2l0.8-0.9c0,0-1.3-1.5-3.9-1.5c-2.4,0-3.9,1.5-3.9,3.1c0,1.8,1.5,2.7,3.9,3.3c1.7,0.4,3.1,0.8,3.1,2
		c0,1.4-1.7,1.9-2.9,1.9c-2.6,0-3.7-1.9-3.7-1.9L154.4,91.9z M146.2,82.8c-2.7,0-3.7,2.3-3.7,2.3v-2h-1.1V94h1.2v-7.6
		c0,0,1-2.4,3.4-2.4c1.8,0,3.1,1,3.1,3.2V94h1.2v-7C150.3,84,148.2,82.8,146.2,82.8 M131.8,93.1c-2.7,0-4.3-2.1-4.3-4.5
		s1.5-4.5,4.3-4.5c2.7,0,4.3,2.1,4.3,4.5S134.5,93.1,131.8,93.1 M131.8,82.8c-3.3,0-5.6,2.6-5.6,5.8s2.3,5.8,5.6,5.8
		c3.3,0,5.6-2.6,5.6-5.8S135,82.8,131.8,82.8 M114.4,77.2h-1.2V94h1.2v-8.2l8.5,8.2h1.8l-8.8-8.6l7.6-8.2h-1.6l-7.5,8.1L114.4,77.2
		L114.4,77.2z M98.4,90.5c0,0-1.2,2.5-3.9,2.5c-2.4,0-4.2-2-4.2-4.5S92,84,94.5,84c2.8,0,3.9,2.5,3.9,2.5V90.5z M99.6,94V75.8h-1.2
		v9.1c-0.3-0.4-1.6-2.1-4-2.1c-3.1,0-5.4,2.3-5.4,5.8s2.4,5.8,5.4,5.8c2.8,0,4.1-2.3,4.1-2.3v2L99.6,94L99.6,94z M80.9,82.8
		c-2.7,0-3.7,2.3-3.7,2.3v-2h-1.1V94h1.2v-7.6c0,0,1-2.4,3.4-2.4c1.8,0,3.1,1,3.1,3.2V94H85v-7C85,84,83,82.8,80.9,82.8 M66.3,94.3
		C69,94.3,70,92,70,92V94h1.1V83.1h-1.2v7.6c0,0-1,2.4-3.4,2.4c-1.8,0-3.1-1-3.1-3.2v-6.8h-1.2v7C62.2,93,64.2,94.3,66.3,94.3"/>
	<path class="st0" d="M377,57.9c0-1.2,1.1-3.9,4.1-3.9c2.9,0,4,2.6,4,3.9H377z M381.1,52.8c-3.3,0-5.4,2.7-5.4,5.8
		c0,3.1,2.4,5.8,5.6,5.8c1.8,0,3.5-1,4.6-2.2l-0.8-0.9c-0.7,0.9-2.1,1.9-3.7,1.9c-2.9,0-4.3-2.4-4.4-4h9.4c0-0.3,0-0.3,0-0.5
		C386.4,55.2,384,52.8,381.1,52.8 M370.5,60.5c0,0-1.1,2.5-4,2.5c-2.5,0-4.1-2-4.1-4.5c0-2.5,1.7-4.5,4.1-4.5c2.8,0,4,2.5,4,2.5
		V60.5z M370.6,53v2c0,0-1.2-2.3-4.1-2.3c-3,0-5.4,2.3-5.4,5.8s2.4,5.8,5.4,5.8c2.4,0,3.6-1.6,4-2.1v2.1c0,2.4-1.3,4.3-4.1,4.3
		c-2.8,0-4.2-1.9-4.2-1.9l-0.8,0.9c0,0,1.8,2.2,5,2.2c3.2,0,5.4-2.1,5.4-5.5V53H370.6z M348.7,57.9c0-1.2,1.1-3.9,4.1-3.9
		c2.9,0,4,2.6,4,3.9H348.7z M352.8,52.8c-3.3,0-5.4,2.7-5.4,5.8c0,3.1,2.4,5.8,5.6,5.8c1.8,0,3.5-1,4.6-2.2l-0.8-0.9
		c-0.7,0.9-2.1,1.9-3.7,1.9c-2.9,0-4.3-2.4-4.4-4h9.4c0-0.3,0-0.3,0-0.5C358.1,55.2,355.7,52.8,352.8,52.8 M341.8,64h1.2V45.8h-1.2
		L341.8,64z M331,54.2h2.4V64h1.2v-9.8h2.9V53h-2.9v-4c0-1.3,0.5-2.3,1.9-2.3c0.7,0,1.4,0.4,1.4,0.4l0.5-1.1
		c-0.9-0.5-1.4-0.5-2.1-0.5c-1.5,0-3,1.1-3,3.2V53H331L331,54.2L331,54.2z M320,55.8v-7.4h3.1c2.4,0,4,1.5,4,3.7s-1.6,3.7-4,3.7
		C323.1,55.8,320,55.8,320,55.8z M318.8,64h1.2v-7.1h3c3.3,0,5.3-2.1,5.3-4.9s-2-4.9-5.3-4.9h-4.3V64z M302.9,67.5l1.1,0.4l2-5.6
		l-1.1-0.4L302.9,67.5z M292.3,54.2h2.4V61c0,1.8,1,3.2,3.1,3.2c1.1,0,2.2-0.7,2.2-0.7l-0.5-1.1c0,0-0.8,0.5-1.6,0.5
		c-1.5,0-1.9-1-1.9-2.3v-6.6h3.7V53h-3.7v-3.5h-1.2V53h-2.4L292.3,54.2L292.3,54.2z M286.5,49.5c0,0.5,0.4,1,1,1s1-0.4,1-1
		s-0.4-1-1-1C287,48.5,286.5,49,286.5,49.5 M286.9,64h1.2V53h-1.2V64z M273.2,57.9c0-1.2,1.1-3.9,4.1-3.9c2.9,0,4,2.6,4,3.9H273.2z
		 M277.3,52.8c-3.3,0-5.4,2.7-5.4,5.8c0,3.1,2.4,5.8,5.6,5.8c1.8,0,3.5-1,4.6-2.2l-0.8-0.9c-0.7,0.9-2.1,1.9-3.7,1.9
		c-2.9,0-4.3-2.4-4.4-4h9.4c0-0.3,0-0.3,0-0.5C282.6,55.2,280.2,52.8,277.3,52.8 M260.2,54.8v-9h-1.2V64h1.2v-7.6c0,0,1-2.5,3.4-2.5
		c1.8,0,3.1,1,3.1,3.2V64h1.2v-7c0-3-2.1-4.2-4.1-4.2C261.2,52.8,260.2,54.8,260.2,54.8 M251.9,60.5c0,0-1.2,2.5-3.9,2.5
		c-2.4,0-4.1-2-4.1-4.5c0-2.5,1.7-4.5,4.1-4.5c2.8,0,3.9,2.5,3.9,2.5V60.5z M253.1,64V45.8h-1.2v9c-0.3-0.4-1.6-2.1-4-2.1
		c-3.1,0-5.4,2.3-5.4,5.8s2.4,5.8,5.4,5.8c2.8,0,4.1-2.3,4.1-2.3v2L253.1,64L253.1,64z M234.4,52.8c-2.7,0-3.7,2.3-3.7,2.3v-2h-1.1
		V64h1.2v-7.6c0,0,1-2.5,3.4-2.5c1.8,0,3.1,1,3.1,3.2V64h1.2v-7C238.5,54,236.5,52.8,234.4,52.8 M219.8,64.3c2.7,0,3.7-2.2,3.7-2.2
		V64h1.1V53h-1.2v7.6c0,0-1,2.4-3.4,2.4c-1.8,0-3.1-1-3.1-3.2V53h-1.2v7C215.7,63,217.7,64.3,219.8,64.3 M202.7,62
		c0,0,1.4,2.3,4.7,2.3c2.1,0,4.1-1.1,4.1-3.1c0-2-1.6-2.7-3.7-3.1c-1.9-0.4-3.3-0.8-3.3-2.1c0-1.1,1.1-1.9,2.6-1.9
		c2,0,3.1,1.2,3.1,1.2l0.8-0.9c0,0-1.3-1.5-3.9-1.5c-2.4,0-3.9,1.5-3.9,3.1c0,1.8,1.5,2.7,3.9,3.3c1.7,0.4,3.1,0.8,3.1,2
		c0,1.4-1.7,1.9-2.9,1.9c-2.6,0-3.7-1.9-3.7-1.9L202.7,62z M190.1,57.9c0.1-1.2,1.1-3.9,4.1-3.9c2.9,0,4,2.6,4,3.9H190.1z
		 M194.2,52.8c-3.3,0-5.4,2.7-5.4,5.8c0,3.1,2.4,5.8,5.6,5.8c1.8,0,3.5-1,4.6-2.2l-0.8-0.9c-0.7,0.9-2.1,1.9-3.7,1.9
		c-2.9,0-4.3-2.4-4.4-4h9.4c0-0.3,0-0.3,0-0.5C199.5,55.2,197.1,52.8,194.2,52.8 M179.4,56.3h4.6v5.1c0,0-1.8,1.6-5.4,1.6
		c-4.3,0-7-3.3-7-7.5s2.9-7.5,7-7.5c3.6,0,5.2,2,5.2,2l0.9-0.8c0,0-1.9-2.4-6.1-2.4c-4.9,0-8.3,3.8-8.3,8.7s3.3,8.7,8.3,8.7
		c4.3,0,6.6-2.3,6.6-2.3v-6.9h-5.8L179.4,56.3L179.4,56.3z M155.5,67.5l1.1,0.4l2-5.6l-1.1-0.4L155.5,67.5z M143.4,62
		c0,0,1.4,2.3,4.7,2.3c2.1,0,4.1-1.1,4.1-3.1c0-2-1.6-2.7-3.7-3.1c-1.9-0.4-3.3-0.8-3.3-2.1c0-1.1,1.1-1.9,2.6-1.9
		c2,0,3.1,1.2,3.1,1.2l0.8-0.9c0,0-1.3-1.5-3.9-1.5c-2.4,0-3.9,1.5-3.9,3.1c0,1.8,1.5,2.7,3.9,3.3c1.7,0.4,3.1,0.8,3.1,2
		c0,1.4-1.7,1.9-2.9,1.9c-2.6,0-3.7-1.9-3.7-1.9L143.4,62z M130.9,57.9c0.1-1.2,1.1-3.9,4.1-3.9c2.9,0,4,2.6,4,3.9H130.9z M135,52.8
		c-3.3,0-5.4,2.7-5.4,5.8c0,3.1,2.4,5.8,5.6,5.8c1.8,0,3.5-1,4.6-2.2l-0.8-0.9c-0.7,0.9-2.1,1.9-3.7,1.9c-2.9,0-4.3-2.4-4.4-4h9.4
		c0-0.3,0-0.3,0-0.5C140.3,55.2,137.9,52.8,135,52.8 M124,64h1.2V45.8H124L124,64z M113.7,63c-1.4,0-3-0.7-3-2.5s1.8-2.5,3.2-2.5
		c2.2,0,3.5,0.9,3.5,0.9v1.8C117.4,60.8,116.1,63,113.7,63 M114.2,52.8c-2.3,0-4.1,1.2-4.1,1.2l0.6,1.1c0,0,1.6-1,3.6-1
		c1.2,0,3.2,0.5,3.2,3.1v0.8c0,0-1.4-1-3.7-1c-2.1,0-4.3,1.3-4.3,3.7c0,2.4,2.1,3.7,4,3.7c2.7,0,4.1-2.2,4.1-2.2V64h1.1v-7.2
		C118.7,54.6,117.2,52.8,114.2,52.8 M103.2,49.5c0,0.5,0.4,1,1,1s1-0.4,1-1s-0.4-1-1-1S103.2,49,103.2,49.5 M103.6,64h1.2V53h-1.2
		V64z M90.3,53v1.2h6.7L89.8,64H99v-1.2h-7l7.2-9.8H90.3z M81.1,63c-2.7,0-4.3-2.1-4.3-4.5s1.5-4.5,4.3-4.5c2.7,0,4.3,2.1,4.3,4.5
		S83.8,63,81.1,63 M81.1,52.8c-3.3,0-5.6,2.6-5.6,5.8s2.3,5.8,5.6,5.8c3.3,0,5.6-2.6,5.6-5.8C86.7,55.3,84.4,52.8,81.1,52.8
		 M70.7,59.8c0,2-1.7,3.3-3.8,3.3c-3,0-4.1-2.9-4.1-2.9l-1.1,0.7c0,0,1.5,3.4,5.2,3.4c2.8,0,5-1.8,5-4.5c0-2.3-1.4-3.5-4-4.7
		c-2.4-1.1-4.3-2-4.3-4c0-1.7,1.3-3,3.5-3c2.4,0,3.6,1.9,3.6,1.9l1-0.7c0,0-1.6-2.4-4.6-2.4c-3.1,0-4.7,2.3-4.7,4.2
		c0,2.5,2,3.8,4.5,4.9C68.9,56.9,70.7,57.7,70.7,59.8"/>
	<path class="st0" d="M273.9,22.6c-2.4,0-3.3,2.1-3.3,2.1s-0.7-2.1-3.5-2.1c-2.3,0-3.1,1.9-3.1,1.9v-1.6h-1.9V34h2v-7.7
		c0,0,0.7-1.8,2.4-1.8c1.4,0,2.4,0.9,2.4,2.7V34h2v-7.7c0,0,0.7-1.8,2.4-1.8c1.4,0,2.4,0.9,2.4,2.7V34h2v-7.1
		C277.7,24.1,276.2,22.6,273.9,22.6 M252.4,34.3c2.4,0,3.4-2,3.4-2V34h1.9V22.9h-2v7.7c0,0-0.9,1.8-2.8,1.8c-1.5,0-2.7-0.8-2.7-2.7
		v-6.8h-2V30C248.2,32.8,250.2,34.3,252.4,34.3 M240.9,19.4c0,0.7,0.6,1.4,1.4,1.4c0.7,0,1.4-0.6,1.4-1.4c0-0.7-0.6-1.4-1.4-1.4
		C241.6,18,240.9,18.6,240.9,19.4 M241.3,34h2V22.9h-2V34z M236.3,22.6c-2.1,0-3.1,2-3.1,2v-1.7h-1.9V34h2v-7.6c0,0,0.8-1.9,2.5-1.9
		c0.8,0,1.3,0.2,1.3,0.2l0.7-1.8C237.9,22.9,237.2,22.6,236.3,22.6 M218.7,27.5c0.1-1.1,1.1-3,3.5-3c2.2,0,3.4,1.8,3.4,3H218.7z
		 M222.2,22.6c-3.3,0-5.5,2.6-5.5,5.8c0,3.3,2.4,5.8,5.8,5.8c2.9,0,4.6-2.2,4.6-2.2l-1.3-1.3c0,0-1.1,1.6-3.3,1.6
		c-2.1,0-3.7-1.6-3.8-3.2h8.9c0-0.3,0-0.4,0-0.6C227.6,24.9,225.3,22.6,222.2,22.6 M206,24.7h2.2v6.1c0,2.5,1.8,3.5,3.3,3.5
		c0.6,0,1.3-0.1,2.3-0.7l-0.7-1.7c0,0-0.6,0.5-1.3,0.5c-1.1,0-1.6-0.6-1.6-1.7v-6h3.5v-1.8h-3.5v-3.4h-2v3.4H206L206,24.7L206,24.7z
		 M193.9,32c0,0,1.6,2.3,4.8,2.3c2.1,0,4.4-1.1,4.4-3.2c0-2.3-1.8-3-3.9-3.5c-1.8-0.4-2.7-0.8-2.7-1.7c0-0.7,0.7-1.4,2.1-1.4
		c1.7,0,2.8,1.2,2.8,1.2l1.3-1.4c0,0-1.5-1.7-4.1-1.7c-2.5,0-4.1,1.6-4.1,3.2c0,2.1,1.7,3,4.1,3.5c1.7,0.3,2.5,0.8,2.5,1.8
		c0,0.9-1.3,1.4-2.4,1.4c-2.2,0-3.4-1.8-3.4-1.8L193.9,32z M187.4,19.4c0,0.7,0.6,1.4,1.4,1.4c0.7,0,1.4-0.6,1.4-1.4
		c0-0.7-0.6-1.4-1.4-1.4C188,18,187.4,18.6,187.4,19.4 M187.7,34h2V22.9h-2V34z M178.7,22.6c-2.4,0-3.4,1.9-3.4,1.9v-1.6h-1.9V34h2
		v-7.6c0,0,1-1.9,2.8-1.9c1.5,0,2.7,0.8,2.7,2.7V34h2v-7.1C182.9,24.1,180.9,22.6,178.7,22.6 M166.1,19.4c0,0.7,0.6,1.4,1.4,1.4
		s1.4-0.6,1.4-1.4c0-0.7-0.6-1.4-1.4-1.4S166.1,18.6,166.1,19.4 M166.5,34h2V22.9h-2V34z M157.8,22.6c-2.4,0-3.3,2.1-3.3,2.1
		s-0.7-2.1-3.5-2.1c-2.3,0-3.1,1.9-3.1,1.9v-1.6h-1.9V34h2v-7.7c0,0,0.7-1.8,2.4-1.8c1.4,0,2.4,0.9,2.4,2.7V34h2v-7.7
		c0,0,0.7-1.8,2.4-1.8c1.4,0,2.4,0.9,2.4,2.7V34h2v-7.1C161.6,24.1,160.1,22.6,157.8,22.6 M133,32c0,0,1.6,2.3,4.8,2.3
		c2.1,0,4.4-1.1,4.4-3.2c0-2.3-1.8-3-3.9-3.5c-1.8-0.4-2.7-0.8-2.7-1.7c0-0.7,0.7-1.4,2.1-1.4c1.7,0,2.8,1.2,2.8,1.2l1.3-1.4
		c0,0-1.5-1.7-4.1-1.7c-2.5,0-4.1,1.6-4.1,3.2c0,2.1,1.7,3,4.1,3.5c1.7,0.3,2.5,0.8,2.5,1.8c0,0.9-1.3,1.4-2.4,1.4
		c-2.2,0-3.4-1.8-3.4-1.8L133,32z M121.1,27.5c0.1-1.1,1.1-3,3.5-3c2.2,0,3.4,1.8,3.4,3H121.1z M124.6,22.6c-3.3,0-5.5,2.6-5.5,5.8
		c0,3.3,2.4,5.8,5.8,5.8c2.9,0,4.6-2.2,4.6-2.2l-1.3-1.3c0,0-1.2,1.6-3.3,1.6c-2.1,0-3.7-1.6-3.8-3.2h9c0-0.3,0-0.4,0-0.6
		C130,24.9,127.7,22.6,124.6,22.6 M112.8,30.5c0,0-1.1,1.9-3.3,1.9c-2.3,0-3.7-1.8-3.7-4s1.5-4,3.7-4s3.3,1.9,3.3,1.9V30.5z
		 M109.3,22.6c-3,0-5.4,2.6-5.4,5.8s2.4,5.8,5.4,5.8c2.7,0,3.7-1.9,3.7-1.9V34h1.8V15.9h-2v8.4C112.8,24.3,111.7,22.6,109.3,22.6
		 M96,22.6c-2.4,0-3.4,1.9-3.4,1.9v-1.6h-1.9V34h2v-7.6c0,0,1-1.9,2.8-1.9c1.5,0,2.7,0.8,2.7,2.7V34h2v-7.1
		C100.2,24.1,98.2,22.6,96,22.6 M80.9,34.3c2.4,0,3.4-2,3.4-2V34h1.9V22.9h-2v7.7c0,0-0.9,1.8-2.8,1.8c-1.5,0-2.7-0.8-2.7-2.7v-6.8
		h-2V30C76.7,32.8,78.7,34.3,80.9,34.3 M64.2,24.4v-5.3H67c1.9,0,3.1,1,3.1,2.7s-1.2,2.7-3.1,2.7L64.2,24.4L64.2,24.4z M67.5,32.1
		h-3.2v-5.8h3.2c2.4,0,3.5,1.3,3.5,2.9S69.9,32.1,67.5,32.1 M62.2,34h5.3c3.3,0,5.5-1.9,5.5-4.8c0-3.3-2.6-4.1-2.8-4.1
		c0.2,0,1.9-1,1.9-3.3c0-2.8-1.9-4.6-5.4-4.6h-4.4V34z"/>
</g>
<polygon class="st0" points="43.2,22.7 43.2,17 17,17 19.6,22.7 "/>
<polygon class="st0" points="24.9,34 43.2,34 43.2,28.4 22.3,28.4 "/>
</svg>
