<svg ns="http://www.w3.org/2000/svg" viewBox="0 -64 1024 1024">
<path d="M955.733 72.533h-153.6v-85.333c0-9.426-7.641-17.067-17.067-17.067s-17.067 7.641-17.067 17.067v0 85.333h-512v-85.333c0-9.426-7.641-17.067-17.067-17.067s-17.067 7.641-17.067 17.067v0 85.333h-153.6c-.003 0-.006 0-.009 0-9.421 0-17.058 7.637-17.058 17.058 0 .003 0 .006 0 .009v0 819.2c0 .003 0 .006 0 .01 0 9.42 7.637 17.057 17.057 17.057.003 0 .007 0 .01 0h887.466c.003 0 .008 0 .012 0 9.419 0 17.055-7.636 17.055-17.055 0-.004 0-.008 0-.012v.001-819.2c0-.003 0-.007 0-.011 0-9.42-7.636-17.056-17.056-17.056-.004 0-.008 0-.012 0h.001zM938.667 891.733h-853.333v-591.568h853.333zM938.667 266.032h-853.333v-159.366h136.533v85.333c0 9.426 7.641 17.067 17.067 17.067s17.067-7.641 17.067-17.067v0-85.333h512v85.333c0 9.426 7.641 17.067 17.067 17.067s17.067-7.641 17.067-17.067v0-85.333h136.533zM238.933 755.2c-9.426 0-17.067 7.641-17.067 17.067s7.641 17.067 17.067 17.067v0h204.8c9.426 0 17.067-7.641 17.067-17.067s-7.641-17.067-17.067-17.067v0h-85.333v-358.4c-.022-9.428-7.67-17.063-17.101-17.063-1.919 0-3.764.316-5.486.899l.121-.035-102.4 34.133c-6.865 2.318-11.719 8.699-11.719 16.214 0 9.431 7.645 17.077 17.077 17.077 1.949 0 3.821-.326 5.566-.928l-.12.036 79.93-26.665v334.731zM652.534 800.768c1.103 0 2.236 0 3.335-.034 116.067-2.334 157.399-77.301 157.399-146.667 0-85.432-74.165-122.3-133.1-134.1l109.834-111.165c3.039-3.082 4.916-7.316 4.916-11.989 0-9.422-7.63-17.063-17.048-17.079h-227.835c-9.426 0-17.067 7.641-17.067 17.067s7.641 17.067 17.067 17.067v0h186.965l-105.465 106.766c-3.045 3.083-4.926 7.322-4.926 12.001 0 9.191 7.259 16.687 16.357 17.066l.034.001c1.369.034 136.134 6.465 136.134 104.366 0 33.099-12.066 110.268-123.931 112.534-.901.034-1.768.034-2.635.034-48.977-1.369-90.913-30.178-111.1-71.547l-.332-.754c-2.982-5.227-8.52-8.693-14.867-8.693-9.421 0-17.059 7.638-17.059 17.059 0 3.074.813 5.958 2.236 8.449l-.044-.084c26.63 52.449 79.536 88.115 140.922 89.698l.209.004z"/>
</svg>
